<svg xmlns="http://www.w3.org/2000/svg" viewBox="0 0 200 200" width="200" height="200" role="img" aria-label="StellarClaw icon — transparent background">
  

  
  <g transform="rotate(0, 100, 100)">
    <path d="M100,100 C85,75 65,55 80,30 C90,15 110,20 112,45 C114,60 105,80 100,100Z" fill="#1A1A1A" stroke="#FDDA24" stroke-width="1.5"></path>
    <path d="M100,100 C90,80 82,62 88,42 C93,28 108,28 110,48 C111,60 105,80 100,100Z" fill="#FDDA24" opacity="0.85"></path>
  </g>

  
  <g transform="rotate(120, 100, 100)">
    <path d="M100,100 C85,75 65,55 80,30 C90,15 110,20 112,45 C114,60 105,80 100,100Z" fill="#1A1A1A" stroke="#FDDA24" stroke-width="1.5"></path>
    <path d="M100,100 C90,80 82,62 88,42 C93,28 108,28 110,48 C111,60 105,80 100,100Z" fill="#FDDA24" opacity="0.85"></path>
  </g>

  
  <g transform="rotate(240, 100, 100)">
    <path d="M100,100 C85,75 65,55 80,30 C90,15 110,20 112,45 C114,60 105,80 100,100Z" fill="#1A1A1A" stroke="#FDDA24" stroke-width="1.5"></path>
    <path d="M100,100 C90,80 82,62 88,42 C93,28 108,28 110,48 C111,60 105,80 100,100Z" fill="#FDDA24" opacity="0.85"></path>
  </g>

  
  <circle cx="100" cy="100" r="22" fill="white"></circle>

  
  <polygon points="100,82 104.7,95.3 118.8,95.3 107.6,103.7 112.4,117 100,109 87.6,117 92.4,103.7 81.2,95.3 95.3,95.3" fill="#0A0A0A"></polygon>
</svg>