<?xml version="1.0" encoding="UTF-8"?>
<svg xmlns="http://www.w3.org/2000/svg" viewBox="0 0 190 161">
  <path fill="#fff" d="M93.29,0c10.64,0,20.94,2.1,30.68,6.22,5.17,2.19,10.13,4.98,14.74,8.24l-.98.52-12.65,6.48c-9.66-5.41-20.64-8.24-31.79-8.24h-.51c-8.59.09-16.97,1.8-24.87,5.11-7.91,3.35-15,8.11-21.07,14.21-12.39,12.49-19.23,29.06-19.23,46.65,0,2.88.17,5.75.56,8.63l.13.9.81-.43,109.19-55.92,22.61-11.59,25.6-13.13v14.85l-26.37,13.52-12.95,6.61-115.09,59.02-.51.3-5.9,3.01-5.98,3.05v-.04l-.56.26L0,118.03v-14.85l6.5-3.3c5.43-2.79,8.68-8.54,8.21-14.68-.13-2.02-.21-4.03-.21-6.05,0-10.69,2.09-21.07,6.2-30.86,3.97-9.44,9.66-17.9,16.88-25.19,7.22-7.25,15.64-13,25.04-17,9.69-4,20.03-6.1,30.67-6.1Z"/>
  <path fill="#fff" d="M186.54,42.36v14.85l-6.5,3.3c-5.43,2.79-8.68,8.54-8.21,14.68.17,2.02.21,4.08.21,6.09,0,10.69-2.09,21.07-6.2,30.86-3.97,9.44-9.66,17.9-16.88,25.19-7.22,7.3-15.68,13.01-25.04,17-9.7,4.12-20.04,6.22-30.68,6.22s-20.94-2.1-30.68-6.22c-5.21-2.23-10.17-5.02-14.79-8.28l13.08-6.7.51-.26c9.66,5.41,20.68,8.28,31.88,8.28h.47c8.59-.04,16.97-1.76,24.87-5.11,7.91-3.35,15-8.11,21.07-14.21,12.39-12.45,19.23-29.06,19.23-46.65,0-2.88-.17-5.79-.56-8.67l-.13-.9-.81.43-109.27,55.84-22.61,11.59L0,152.75v-14.85l26.28-13.48,12.95-6.61L186.54,42.36Z"/>
</svg>
